<svg xmlns="http://www.w3.org/2000/svg" width="100mm" height="100mm" viewBox="0 0 283.46 283.46"><defs><style>.cls-1{fill:#12284c;}.cls-2{fill:none;}.cls-3{fill:#fff;}</style></defs><g id="logo"><rect class="cls-1" width="283.46" height="283.46"/><rect class="cls-2" x="21.26" y="21.26" width="240.94" height="240.94"/><path class="cls-3" d="M41.6,250.86c0-2.82-2.34-3.84-6-4.8-5.22-1.38-11.4-3.89-11.4-11.94s6.06-12.53,14.88-12.53a28.7,28.7,0,0,1,12,2.4v9.78l-7.56.48v-3c0-.84-.06-1.32-.84-1.56a13.72,13.72,0,0,0-3.36-.36c-2.34,0-4.44,1-4.44,3.59,0,2.83,2.4,3.73,6.36,5,5.46,1.74,11.28,3.66,11.28,11.87s-6,13.2-15.66,13.2a33.53,33.53,0,0,1-13-2.4V250.32l7.74-.48v3.36c0,.9.06,1.38.84,1.62a14.61,14.61,0,0,0,3.66.42C39,255.24,41.6,254.16,41.6,250.86Z"/><path class="cls-3" d="M66.08,246.79c0,5.27,2,8.39,6,8.39a11.57,11.57,0,0,0,6.66-2.52l3.54,6.48A19,19,0,0,1,70.64,263C61.7,263,56,257.76,56,247.21c0-11.88,7.44-16.5,15.42-16.5a21.38,21.38,0,0,1,10,2.28v9.59l-7.08.48v-2.94c0-.9-.12-1.37-.84-1.62a8.73,8.73,0,0,0-1.8-.17C68.12,238.33,66.08,241.21,66.08,246.79Z"/><path class="cls-3" d="M91.34,253.08c3.54,0,5.34,1.92,5.34,4.86a4.76,4.76,0,0,1-5.16,5c-3.66,0-5.4-2.1-5.4-5S88,253.08,91.34,253.08Z"/><path class="cls-3" d="M107.66,229.08h-3.42c-1.2,0-1.5.61-1.5,1.63v3.83l-7.56-.47V222.31h35v11.76l-7.56.47v-3.77c0-1.15-.36-1.69-1.56-1.69H118v27l4.26.24v5.88h-18.9v-5.7l2.76-.24c1.26-.06,1.56-.48,1.56-1.92Z"/><path class="cls-3" d="M146.06,256.38l3.18.24v5.58H132.68v-5.4l2.1-.18c1.14-.12,1.38-.48,1.38-2V239.17c0-1.26-.36-1.68-1.44-1.8l-2-.18v-5.65h13.38Zm-5.76-38.81c3.48,0,5.88,2,5.88,5.1s-2.4,5.4-5.88,5.4-5.76-2.22-5.76-5.22S136.82,217.57,140.3,217.57Z"/><path class="cls-3" d="M170.78,257.88c-1.2,1.92-3.78,3.3-7,3.3-8.7,0-11.88-6.18-11.88-14.16,0-9.77,5.64-16.31,16.2-16.31A34.64,34.64,0,0,1,180,233v25.62c0,8.52-2.22,16.38-15.12,16.38-3.72,0-9-.78-11.58-2.16V264l7.26-.48v2.4c0,1.2.36,1.68,1.26,2a9.92,9.92,0,0,0,2.76.36c4.8,0,6.18-2.82,6.18-8.1Zm-.66-19.55a9.24,9.24,0,0,0-3-.49c-3.84,0-5.28,4-5.28,8.41s.66,8,4.5,8c2.4,0,3.78-1.38,3.78-4Z"/><path class="cls-3" d="M211.34,239.88c0,8.52-7.32,10.68-16.38,10.56.3,2.82,2.1,5.1,6,5.1a14,14,0,0,0,7.62-2.4l2.64,6.66A21.23,21.23,0,0,1,199.58,263c-10.5,0-14.58-6.54-14.58-15.42s5.34-16.85,15.72-16.85C207,230.71,211.34,233.58,211.34,239.88Zm-11.16-2c-3.12,0-5.16,2.83-5.34,6.72,5.4.19,7.92-1.26,7.92-4.14A2.31,2.31,0,0,0,200.18,237.84Z"/><path class="cls-3" d="M227.48,243.18v13.14l5.22.3v5.58H214.16v-5.4l2-.18c1.2-.06,1.44-.54,1.44-2V239.11c0-1.2-.36-1.62-1.38-1.74l-2.1-.18v-5.65h12.54v4.63h.12a8.92,8.92,0,0,1,8.58-5.46,15.9,15.9,0,0,1,5.52.9v11.88L233,244v-4.13c0-.84-.06-1.08-.48-1.26a3.26,3.26,0,0,0-1.26-.19C228.86,238.38,227.48,240.42,227.48,243.18Z"/></g></svg>